<svg width="1024" height="1024" viewBox="0 0 1024 1024" fill="none" xmlns="http://www.w3.org/2000/svg">
<rect width="1024" height="1024" fill="#D18B69"/>
<circle cx="516.194" cy="518.14" r="268.006" fill="white"/>
<ellipse cx="515.479" cy="517.425" rx="210.117" ry="207.258" fill="#D18B69"/>
<path d="M549.657 667.831L591.868 713.097L531.561 727.02L549.657 667.831Z" fill="white"/>
<path d="M480.205 367.001L437.994 321.735L498.301 307.812L480.205 367.001Z" fill="white"/>
<path d="M668.132 482.046L713.398 439.835L727.321 500.142L668.132 482.046Z" fill="white"/>
<path d="M361.731 552.785L316.465 594.996L302.542 534.689L361.731 552.785Z" fill="white"/>
<path d="M446.31 209.717C455.036 207.702 463.641 208.014 470.559 210.363C477.404 212.688 483.268 217.304 484.88 224.284C486.491 231.263 483.244 237.983 478.111 243.073C472.922 248.218 465.326 252.269 456.599 254.284C447.872 256.299 439.268 255.988 432.349 253.638C425.505 251.313 419.64 246.697 418.029 239.718C416.417 232.738 419.665 226.018 424.798 220.928C429.986 215.783 437.583 211.732 446.31 209.717Z" stroke="white" stroke-width="8.5762"/>
<circle cx="514.795" cy="517.27" r="57.6321" transform="rotate(-13 514.795 517.27)" stroke="white" stroke-width="12.3497"/>
<path d="M484.892 387.745L513.834 463.58L492.123 468.593L484.892 387.745Z" fill="white"/>
<path d="M385.271 547.173L461.106 518.231L466.118 539.941L385.271 547.173Z" fill="white"/>
<path d="M644.319 487.367L568.484 516.308L563.472 494.598L644.319 487.367Z" fill="white"/>
<path d="M544.698 646.794L515.756 570.959L537.467 565.946L544.698 646.794Z" fill="white"/>
<path d="M645.05 396.702L532.461 536.214L498.024 499.285L645.05 396.702Z" fill="white"/>
<path d="M385.435 638.797L498.024 499.285L532.461 536.214L385.435 638.797Z" fill="white"/>
</svg>
